<svg viewBox="0 0 130 130" xmlns="http://www.w3.org/2000/svg"><path d="m91.6 38.39a1 1 0 0 1 0-1.4l5.58-5.58a1 1 0 0 1 1.4 1.4l-5.58 5.58a1 1 0 0 1 -1.4 0"/><path d="m116.39 65.71h-12.89a1 1 0 1 1 0-2h12.89a1 1 0 1 1 0 2"/><path d="m65.27 116.84a1 1 0 0 1 -1-1v-12.84a1 1 0 0 1 2 0v12.89a1 1 0 0 1 -1 1"/><path d="m13.16 65.49a1 1 0 0 1 1-1l12.84-.28a1 1 0 1 1 .07 2l-12.89.28a1 1 0 0 1 -1-1"/><path d="m65.27 27.48a1 1 0 0 1 -1-1v-12.88a1 1 0 1 1 2 0v12.89a1 1 0 0 1 -1 1"/><path d="m97.19 98-5.59-5.54a1 1 0 0 1 1.4-1.4l5.58 5.58a1 1 0 0 1 -1.39 1.36"/><path d="m32 98a1 1 0 0 1 0-1.39l5.58-5.58a1 1 0 0 1 1.39 1.39l-5.62 5.58a1 1 0 0 1 -1.35 0"/><path d="m37.54 38.39-5.54-5.58a1 1 0 1 1 1.39-1.4l5.54 5.59a1 1 0 1 1 -1.39 1.4"/><path d="m84.61 45.38a27.38 27.38 0 0 0 -37.3-1.28l1.21 1.21a25.68 25.68 0 1 1 -2.72 2.69l-1.21-1.21a27.35 27.35 0 1 0 40-1.45"/></svg>