<svg viewBox="0 0 130 130" xmlns="http://www.w3.org/2000/svg"><path d="m63.44 62c0-5.81 2.84-12.21 7.6-15.59.44-.32.92-.62 1.41-.9a17.94 17.94 0 0 1 26.87 14.19l.11.88h.88c9.74 0 18 8.55 18 18.66s-8.23 18.66-18 18.66a15.19 15.19 0 0 1 -10.5-3.71l-.26-.09h-.94l-.35.12a17.77 17.77 0 0 1 -11.36 4.15c-4.32 0-7.29-1.4-11-5.08l-.64-.66-.65.61a16.93 16.93 0 0 1 -11.91 4.64 17.86 17.86 0 0 1 -16.1-25.81c.22-.45.46-.89.72-1.33a17.74 17.74 0 0 1 15.31-8.74 15 15 0 0 1 4.47.59v-1.87a16.55 16.55 0 0 0 -4.47-.53 19.63 19.63 0 0 0 -16.93 9.6c-.29.48-.54 1-.78 1.46a19.72 19.72 0 0 0 17.77 28.48 18.82 18.82 0 0 0 12.57-4.55c3.76 3.56 7.09 5 11.64 5a19.2 19.2 0 0 0 12.1-4.39 17.39 17.39 0 0 0 11.27 3.93c10.74 0 19.82-9.39 19.82-20.51 0-10.85-8.64-20.05-19-20.49a19.79 19.79 0 0 0 -29.56-14.72c-.54.31-1.06.65-1.55 1-5.25 3.67-8.39 10.64-8.39 17"/><path d="m56.33 41.39a24.46 24.46 0 0 0 -33.33-1.14l1.08 1.08a22.89 22.89 0 0 1 35.15 6.48l1.07-1.19a24.3 24.3 0 0 0 -4-5.24"/><path d="m22.84 74.88a22.93 22.93 0 0 1 -1.17-31.11l-1.08-1.08a24.41 24.41 0 0 0 8.78 38.41l1.06-1.18a22.8 22.8 0 0 1 -7.59-5"/></svg>