<svg viewBox="0 0 130 130" xmlns="http://www.w3.org/2000/svg"><path d="m88.48 78.3h-51.12a.86.86 0 1 1 0-1.71h51.12a.86.86 0 0 1 0 1.71"/><path d="m94.48 86.33h-47.12a.86.86 0 1 1 0-1.71h47.12a.86.86 0 0 1 0 1.71"/><path d="m74 94.37h-15.1a.86.86 0 1 1 0-1.71h15.1a.86.86 0 0 1 0 1.71"/><path d="m84.88 49.18a27.75 27.75 0 0 0 -37.81-1.23l1.23 1.26a26.16 26.16 0 0 1 35.37 1.18 26.49 26.49 0 0 1 7.39 21.57h1.72a27.6 27.6 0 0 0 -7.91-22.77"/><path d="m45.55 51.88-1.23-1.29a28.2 28.2 0 0 0 -6.56 21.36h1.73a25.85 25.85 0 0 1 6.06-20.07"/></svg>