<svg viewBox="0 0 130 130" xmlns="http://www.w3.org/2000/svg"><path d="m72.12 73.4c0-5.81 2.84-12.21 7.6-15.58.44-.32.92-.62 1.41-.9a17.94 17.94 0 0 1 26.87 14.15l.11.88h.88c9.74 0 18 8.55 18 18.66s-8.23 18.66-18 18.66a15.19 15.19 0 0 1 -10.5-3.71l-.26-.09h-.94l-.35.12a17.78 17.78 0 0 1 -11.36 4.18c-4.32 0-7.29-1.4-11-5.08l-.58-.69-.65.61a16.93 16.93 0 0 1 -11.94 4.63 17.86 17.86 0 0 1 -16.1-25.81c.22-.45.46-.89.72-1.32a17.73 17.73 0 0 1 15.28-8.71 15 15 0 0 1 4.47.59v-1.91a16.55 16.55 0 0 0 -4.47-.53 19.62 19.62 0 0 0 -16.93 9.6c-.29.48-.54 1-.78 1.46a19.72 19.72 0 0 0 17.77 28.48 18.82 18.82 0 0 0 12.57-4.55c3.76 3.56 7.09 5 11.64 5a19.2 19.2 0 0 0 12.13-4.36 17.39 17.39 0 0 0 11.29 3.9c10.74 0 19.82-9.39 19.82-20.51 0-10.85-8.64-20.05-19-20.49a19.79 19.79 0 0 0 -29.61-14.76c-.54.31-1.06.64-1.55 1-5.25 3.68-8.39 10.68-8.39 17.08"/><path d="m72.51 41.51 5-5a.88.88 0 1 0 -1.25-1.25l-5 5a.88.88 0 0 0 1.25 1.25"/><path d="m13.56 64.57-11.56.25a.88.88 0 0 0 .06 1.76l11.51-.25a.88.88 0 1 0 -.06-1.76"/><path d="m47.78 31.77a1 1 0 0 0 1-.88v-11.52a1 1 0 0 0 -2 0v11.52a1 1 0 0 0 1 .88"/><path d="m24.21 88.56a.88.88 0 0 0 -1.25 0l-5 5a.88.88 0 0 0 1.25 1.25l5-5a.88.88 0 0 0 0-1.25"/><path d="m23 41.51a.88.88 0 0 0 1.25-1.25l-5-5a.88.88 0 0 0 -1.25 1.26z"/><path d="m65 47.75a24.46 24.46 0 0 0 -33.3-1.14l1.08 1.08a22.89 22.89 0 0 1 35.15 6.48l1.07-1.17a24.35 24.35 0 0 0 -4-5.24"/><path d="m31.53 81.24a22.93 22.93 0 0 1 -1.17-31.11l-1.09-1.13a24.41 24.41 0 0 0 8.78 38.41l1.06-1.18a22.8 22.8 0 0 1 -7.59-5"/></svg>