<svg viewBox="0 0 130 130" xmlns="http://www.w3.org/2000/svg"><path d="m67.94 65.07c0-5.57 2.73-11.72 7.29-15 .43-.3.88-.59 1.35-.86a17.21 17.21 0 0 1 25.78 13.57l.11.85h.84c9.34 0 17.23 8.2 17.23 17.9s-7.9 17.9-17.24 17.9a14.62 14.62 0 0 1 -10.07-3.61l-.23-.11h-.9l-.33.17a17 17 0 0 1 -10.9 4c-4.14 0-7-1.33-10.52-4.86l-.61-.62-.63.59a16.25 16.25 0 0 1 -11.46 4.45 17.13 17.13 0 0 1 -15.47-24.74c.21-.43.45-.86.7-1.27a16.85 16.85 0 0 1 14.59-8.36 13.86 13.86 0 0 1 4.19.57v-1.84a15.27 15.27 0 0 0 -4.19-.51 18.74 18.74 0 0 0 -16.19 9.21c-.28.46-.49.93-.73 1.4a18.79 18.79 0 0 0 -2 8.4 19 19 0 0 0 19 18.92 18.06 18.06 0 0 0 12.06-4.36c3.6 3.42 6.8 4.77 11.17 4.77a18.42 18.42 0 0 0 11.64-4.18 16.68 16.68 0 0 0 10.82 3.77c10.31 0 19-9 19-19.68 0-10.41-8.29-19.24-18.27-19.66a19 19 0 0 0 -28.27-14.16c-.52.3-1 .62-1.49 1-5 3.57-8 10.26-8 16.4"/><path d="m34.55 84.68a26.32 26.32 0 0 1 -21.93-11.74 28.32 28.32 0 0 0 32.08-17.2l-1.7-1.22a26.33 26.33 0 0 1 -32.2 15.9 1 1 0 0 0 -1.17 1.43 28.33 28.33 0 0 0 24.73 14.83c.17-.68.37-1.34.58-2z"/><path d="m62.87 58.36a28.51 28.51 0 0 0 -20.14-27.12 1 1 0 0 0 -1.17 1.43 26.38 26.38 0 0 1 2.63 17.87l1.76 1.28a28.32 28.32 0 0 0 -1.55-17.88 26.53 26.53 0 0 1 16.47 24.42 3.33 3.33 0 0 1 -.07.82l2 .48s0-.87 0-1.31"/></svg>