<svg viewBox="0 0 130 130" xmlns="http://www.w3.org/2000/svg"><path d="m38.23 98.72a1 1 0 0 1 -.44-.1 1 1 0 0 1 -.45-1.34l4.74-9.55a1 1 0 0 1 1.79.89l-4.74 9.55a1 1 0 0 1 -.9.56"/><path d="m42.94 105.49a1 1 0 0 1 -.94-1.49l5.78-11.5a1 1 0 1 1 1.79.89l-5.74 11.55a1 1 0 0 1 -.9.55"/><path d="m75.09 105.49a1 1 0 0 1 -.89-1.49l5.74-11.5a1 1 0 1 1 1.79.89l-5.73 11.55a1 1 0 0 1 -.9.55"/><path d="m86.29 98.72a1 1 0 0 1 -.44-.1 1 1 0 0 1 -.45-1.34l4.74-9.55a1 1 0 0 1 1.79.89l-4.74 9.55a1 1 0 0 1 -.9.56"/><path d="m88.59 41.23a19 19 0 0 0 -28.35-14.17c-.52.3-1 .62-1.49 1-5 3.57-8 10.26-8 16.4h1.77c0-5.57 2.73-11.72 7.29-15 .43-.3.88-.59 1.35-.86a17.21 17.21 0 0 1 25.74 13.57l.1.83h.85c9.34 0 17.23 8.2 17.23 17.9s-7.9 17.9-17.24 17.9a15 15 0 0 1 -9.38-2.95l-.26.15-1 .86a16.69 16.69 0 0 0 10.65 3.65c10.31 0 19-9 19-19.68 0-10.41-8.29-19.24-18.27-19.66"/><path d="m53.63 74.35a16.25 16.25 0 0 1 -11.46 4.45 17.13 17.13 0 0 1 -15.45-24.8c.21-.43.45-.86.7-1.27a16.85 16.85 0 0 1 14.58-8.32 13.86 13.86 0 0 1 4.2.59v-1.86a15.26 15.26 0 0 0 -4.2-.5 18.75 18.75 0 0 0 -16.19 9.21c-.28.46-.49.93-.73 1.4a18.79 18.79 0 0 0 -2 8.4 19 19 0 0 0 19 18.92 18.06 18.06 0 0 0 12-4.35z"/><path d="m68.42 63.54-12.92 20.64a.28.28 0 0 0 .24.43l9.58-.42a.28.28 0 0 1 .27.38l-6.09 17a.28.28 0 0 0 .48.27l14.02-22.17a.28.28 0 0 0 -.23-.44h-9.09a.28.28 0 0 1 -.27-.35l4.5-15.11a.28.28 0 0 0 -.5-.23" fill="none" stroke="#000" stroke-miterlimit="10" stroke-width="2"/></svg>