<svg viewBox="0 0 130 130" xmlns="http://www.w3.org/2000/svg"><path d="m54.63 29a24.46 24.46 0 0 0 -33.32-1.14l1.08 1.08a22.89 22.89 0 0 1 35.15 6.48l1.07-1.19a24.39 24.39 0 0 0 -4-5.24"/><path d="m21.14 62.5a22.93 22.93 0 0 1 -1.14-31.11l-1.12-1.09a24.41 24.41 0 0 0 8.78 38.41l1.06-1.18a22.8 22.8 0 0 1 -7.59-5"/><path d="m62.68 47.05c0-5.57 2.73-11.72 7.29-15 .43-.3.88-.59 1.35-.86a17.21 17.21 0 0 1 25.78 13.62l.11.85h.85c9.34 0 17.23 8.2 17.23 17.9s-7.9 17.9-17.24 17.9a14.62 14.62 0 0 1 -10.05-3.64l-.25-.13h-.9l-.33.16a17 17 0 0 1 -10.9 4c-4.14 0-7-1.33-10.52-4.86l-.61-.62-.63.59a16.25 16.25 0 0 1 -11.46 4.45 17.13 17.13 0 0 1 -15.48-24.73c.21-.43.45-.86.7-1.27a16.85 16.85 0 0 1 14.59-8.35 13.86 13.86 0 0 1 4.19.57v-1.85a15.27 15.27 0 0 0 -4.19-.51 18.74 18.74 0 0 0 -16.21 9.22c-.28.46-.49.93-.73 1.4a18.79 18.79 0 0 0 -2 8.4 19 19 0 0 0 19 18.92 18.06 18.06 0 0 0 12.06-4.36c3.6 3.42 6.8 4.77 11.17 4.77a18.42 18.42 0 0 0 11.64-4.18 16.68 16.68 0 0 0 10.86 3.76c10.31 0 19-9 19-19.68 0-10.41-8.29-19.24-18.27-19.66a19 19 0 0 0 -28.29-14.16c-.52.3-1 .62-1.49 1-5 3.57-8 10.26-8 16.4"/><path d="m48.43 101.36a1 1 0 0 1 -.44-.1 1 1 0 0 1 -.45-1.34l4.74-9.55a1 1 0 0 1 1.79.89l-4.74 9.55a1 1 0 0 1 -.9.56"/><path d="m64.49 101.36a1 1 0 0 1 -.44-.1 1 1 0 0 1 -.45-1.34l4.74-9.55a1 1 0 0 1 1.79.89l-4.74 9.55a1 1 0 0 1 -.9.56"/><path d="m80.49 101.36a1 1 0 0 1 -.44-.1 1 1 0 0 1 -.45-1.34l4.74-9.55a1 1 0 0 1 1.79.89l-4.74 9.55a1 1 0 0 1 -.9.56"/><path d="m53.14 108.13a1 1 0 0 1 -.9-1.44l5.76-11.55a1 1 0 1 1 1.79.89l-5.79 11.55a1 1 0 0 1 -.9.56"/><path d="m85.29 108.13a1 1 0 0 1 -.89-1.44l5.74-11.55a1 1 0 1 1 1.79.89l-5.74 11.55a1 1 0 0 1 -.9.56"/><path d="m69.22 108.13a1 1 0 0 1 -.9-1.44l5.74-11.55a1 1 0 1 1 1.79.89l-5.74 11.55a1 1 0 0 1 -.9.56"/><path d="m96.49 101.36a1 1 0 0 1 -.44-.1 1 1 0 0 1 -.45-1.34l4.74-9.55a1 1 0 0 1 1.79.89l-4.74 9.55a1 1 0 0 1 -.9.56"/></svg>