<svg viewBox="0 0 130 130" xmlns="http://www.w3.org/2000/svg"><path d="m52.48 45.86c0-5.57 2.73-11.72 7.29-15 .43-.3.88-.59 1.35-.86a17.21 17.21 0 0 1 25.78 13.62l.11.85h.85c9.34 0 17.23 8.2 17.23 17.9s-7.9 17.9-17.24 17.9a14.61 14.61 0 0 1 -10.07-3.61l-.25-.13h-.9l-.33.16a17 17 0 0 1 -10.9 4c-4.14 0-7-1.34-10.52-4.86l-.61-.62-.63.59a16.25 16.25 0 0 1 -11.46 4.45 17.13 17.13 0 0 1 -15.46-24.77c.21-.43.45-.86.7-1.27a16.85 16.85 0 0 1 14.58-8.35 13.86 13.86 0 0 1 4.19.57v-1.84a15.27 15.27 0 0 0 -4.19-.51 18.74 18.74 0 0 0 -16.18 9.22c-.28.46-.49.93-.73 1.4a18.78 18.78 0 0 0 -2 8.4 19 19 0 0 0 19.07 18.9 18.06 18.06 0 0 0 12.06-4.36c3.6 3.42 6.8 4.77 11.17 4.77a18.41 18.41 0 0 0 11.61-4.17 16.68 16.68 0 0 0 10.85 3.76c10.31 0 19-9 19-19.68 0-10.41-8.29-19.24-18.27-19.66a19 19 0 0 0 -28.34-14.16c-.52.3-1 .62-1.49 1-5 3.57-8 10.26-8 16.4"/><circle cx="48.99" cy="91.55" r="1.49"/><circle cx="64.99" cy="91.55" r="1.49"/><circle cx="80.99" cy="91.55" r="1.49"/><circle cx="55.99" cy="97.55" r="1.49"/><circle cx="70.99" cy="97.55" r="1.49"/><circle cx="45.99" cy="102.55" r="1.49"/><circle cx="61.99" cy="102.55" r="1.49"/><circle cx="40.99" cy="97.55" r="1.49"/></svg>