<svg viewBox="0 0 130 130" xmlns="http://www.w3.org/2000/svg"><path d="m42.17 62.09h-9.17a.86.86 0 0 1 0-1.71h9.12a.86.86 0 0 1 0 1.71"/><path d="m69.92 77h-19.12a.86.86 0 0 1 0-1.71h19.12a.86.86 0 1 1 0 1.71"/><path d="m61.73 62h-15.12a.86.86 0 0 1 0-1.71h15.12a.86.86 0 1 1 0 1.71"/><path d="m44.37 70.09h-6.12a.86.86 0 1 1 0-1.71h6.12a.86.86 0 1 1 0 1.71"/><path d="m66.79 55.71h-16.12a.86.86 0 1 1 0-1.71h16.12a.86.86 0 1 1 0 1.71"/><path d="m97.81 77.75a9.46 9.46 0 0 1 -2.81 6.73 1.25 1.25 0 0 1 -1.35-.12 1.09 1.09 0 0 1 -.07-1.29 7.47 7.47 0 0 0 2.2-5.32 7.69 7.69 0 0 0 -7.44-7.75h-37.92a1.12 1.12 0 0 1 -.87-1 1.08 1.08 0 0 1 .87-1l37.95.06a9.68 9.68 0 0 1 9.44 9.69"/><path d="m92.18 52.25a9.46 9.46 0 0 0 -2.79-6.73 1.25 1.25 0 0 0 -1.35.12 1.09 1.09 0 0 0 -.04 1.29 7.47 7.47 0 0 1 2.2 5.32 7.69 7.69 0 0 1 -7.48 7.75h-15.92a1.12 1.12 0 0 0 -.87 1 1.08 1.08 0 0 0 .87 1l15.95-.06a9.68 9.68 0 0 0 9.44-9.69"/></svg>